<svg xmlns="http://www.w3.org/2000/svg" viewBox="0 0 32 32" width="32" height="32">
  <!-- Globe -->
  <circle cx="16" cy="16" r="14" fill="#4A90E2" stroke="#2E5BBA" stroke-width="1"/>
  
  <!-- Globe grid lines -->
  <ellipse cx="16" cy="16" rx="14" ry="7" fill="none" stroke="#2E5BBA" stroke-width="0.5" opacity="0.6"/>
  <ellipse cx="16" cy="16" rx="7" ry="14" fill="none" stroke="#2E5BBA" stroke-width="0.5" opacity="0.6"/>
  <line x1="2" y1="16" x2="30" y2="16" stroke="#2E5BBA" stroke-width="0.5" opacity="0.6"/>
  <line x1="16" y1="2" x2="16" y2="30" stroke="#2E5BBA" stroke-width="0.5" opacity="0.6"/>
  
  <!-- Continents (simplified) -->
  <path d="M8 12 Q12 10 16 12 Q20 10 24 12 Q22 14 20 16 Q18 18 16 16 Q14 18 12 16 Q10 14 8 12 Z" fill="#2E5BBA" opacity="0.3"/>
  <path d="M6 20 Q10 18 14 20 Q12 22 10 24 Q8 22 6 20 Z" fill="#2E5BBA" opacity="0.3"/>
  <path d="M18 20 Q22 18 26 20 Q24 22 22 24 Q20 22 18 20 Z" fill="#2E5BBA" opacity="0.3"/>
  
  <!-- Plane -->
  <g transform="rotate(45 16 16)">
    <!-- Plane body -->
    <ellipse cx="16" cy="16" rx="8" ry="2" fill="#FF6B35" transform="rotate(-45 16 16)"/>
    
    <!-- Plane wings -->
    <ellipse cx="16" cy="16" rx="2" ry="6" fill="#FF6B35" transform="rotate(-45 16 16)"/>
    
    <!-- Plane nose -->
    <circle cx="20" cy="16" r="1.5" fill="#FF6B35" transform="rotate(-45 16 16)"/>
    
    <!-- Plane tail -->
    <path d="M12 16 L10 14 L10 18 Z" fill="#FF6B35" transform="rotate(-45 16 16)"/>
    
    <!-- Plane windows -->
    <circle cx="18" cy="16" r="0.5" fill="#FFFFFF" transform="rotate(-45 16 16)"/>
    <circle cx="15" cy="16" r="0.5" fill="#FFFFFF" transform="rotate(-45 16 16)"/>
  </g>
  
  <!-- Flight path (dotted line) -->
  <circle cx="16" cy="16" r="18" fill="none" stroke="#FF6B35" stroke-width="1" stroke-dasharray="2,2" opacity="0.6"/>
</svg>
